<?xml version="1.0" standalone="no"?><!DOCTYPE svg PUBLIC "-//W3C//DTD SVG 1.1//EN" "http://www.w3.org/Graphics/SVG/1.1/DTD/svg11.dtd"><svg class="icon" width="40px" height="40.00px" viewBox="0 0 1024 1024" version="1.1" xmlns="http://www.w3.org/2000/svg"><path d="M687.902468 511.232537c23.637854 0 42.773259-19.135405 42.773259-42.773258 0-23.637854-19.135405-42.773259-42.773259-42.773259h-86.365144l92.91416-128.217448c13.81433-19.135405 9.618867-45.84311-9.516538-59.65744-19.135405-13.81433-45.84311-9.618867-59.65744 9.516539l-109.90067 151.445987-109.798341-151.445987c-13.81433-19.135405-40.522035-23.433197-59.65744-9.516539-19.135405 13.81433-23.433197 40.624363-9.516538 59.65744L429.216349 425.68602h-91.07225c-23.637854 0-42.773259 19.135405-42.773259 42.773259 0 23.637854 19.135405 42.773259 42.773259 42.773258h132.105926v85.137204H338.144099c-23.637854 0-42.773259 19.135405-42.773259 42.773259 0 23.637854 19.135405 42.773259 42.773259 42.773259h132.105926v103.453982c0 23.637854 19.135405 42.773259 42.773259 42.773259 23.637854 0 42.773259-19.135405 42.773258-42.773259V681.916259h132.105926c23.637854 0 42.773259-19.135405 42.773259-42.773259 0-23.637854-19.135405-42.773259-42.773259-42.773259H555.796542v-85.137204h132.105926z" fill="#f4ea2a" /><path d="M513.023284 21.386629c-271.067853 0-491.58549 220.517638-491.58549 491.585491s220.517638 491.58549 491.58549 491.58549 491.58549-220.517638 491.58549-491.58549S784.091136 21.386629 513.023284 21.386629z m0 897.726792c-223.894474 0-406.141301-182.144499-406.141301-406.141301s182.144499-406.141301 406.141301-406.141302 406.141301 182.144499 406.141301 406.141302-182.246827 406.141301-406.141301 406.141301z" fill="#f4ea2a" /></svg>