<?xml version="1.0" encoding="utf-8"?>
<!-- Generator: Adobe Illustrator 19.2.1, SVG Export Plug-In . SVG Version: 6.00 Build 0)  -->
<svg version="1.1" xmlns="http://www.w3.org/2000/svg" xmlns:xlink="http://www.w3.org/1999/xlink" x="0px" y="0px"
	 viewBox="0 0 500 300" style="enable-background:new 0 0 500 300;" xml:space="preserve">
<style type="text/css">
	.st0{fill:#F9F967;}
	.st1{fill:none;}
	.st2{fill:none;stroke:#FFF100;stroke-width:10;stroke-linecap:round;stroke-miterlimit:10;}
</style>
<g id="图层_1">
	<g>
		<path class="st0" d="M303.1,107.9l-2.2,1.3l0,0c-17.1-20.4-50.5-24.5-78.6-8.2c-28.1,16.2-41.4,47.1-32.2,72.2l-1.9,1.1
			c-4.5,2.6-6.1,8.4-3.5,13l1.1,1.9c2.6,4.5,8.4,6.1,13,3.5l2.2-1.3c0.2-0.1,0.4-0.3,0.7-0.5c17.9,17.1,48.7,19.6,75,4.4
			C303,180,316.2,152,310.4,128c0.4-0.2,0.8-0.3,1.1-0.5l2.2-1.3c4.5-2.6,6.1-8.4,3.5-13l-1.1-1.9
			C313.5,106.9,307.6,105.3,303.1,107.9z"/>
		<path d="M232.9,198.5c-1.5,0-3-0.1-4.6-0.2c-13.2-0.9-25.4-5.6-34.6-13.3l-0.3,0.2c-6.5,3.7-14.8,1.5-18.6-5l-1.1-1.9
			c-1.8-3.1-2.3-6.8-1.3-10.3c0.8-3.1,2.7-5.8,5.3-7.6c-3.6-12.4-2.5-26.2,3.3-39.2c6.2-14.1,17.5-26.5,31.8-34.7
			c14.3-8.3,30.6-11.9,46-10.2c14.1,1.5,26.6,7.4,35.6,16.7c3-1.5,6.4-1.9,9.7-1c3.5,0.9,6.4,3.2,8.3,6.3l1.1,1.9
			c3.7,6.5,1.5,14.8-5,18.6l-0.7,0.4c2.1,11.8,0.1,24.7-5.8,36.6c-3.2,6.4-7.3,12.4-12.4,17.8c-5.2,5.6-11.3,10.4-18.1,14.3
			c-6.8,3.9-14,6.8-21.4,8.6C244.3,197.8,238.6,198.5,232.9,198.5z M194.3,175.8c1,0,2.1,0.4,2.8,1.1c17,16.3,45.9,17.8,70.1,3.8
			c24.3-14,37.4-39.8,31.8-62.7c-0.5-2,0.6-4,2.4-4.8c0.1,0,0.2-0.1,0.3-0.1c0.1-0.1,0.3-0.1,0.4-0.2l2.2-1.3c2.6-1.5,3.4-4.8,2-7.3
			l-1.1-1.9c-0.7-1.2-1.9-2.1-3.3-2.5s-2.8-0.2-4.1,0.5l-2.1,1.2c0,0-0.1,0.1-0.1,0.1c-1.7,1-4,0.6-5.2-0.9
			c-16-19.1-47.5-22.2-73.4-7.3s-38.9,43.8-30.4,67.2c0.7,1.9-0.1,4-1.8,5l-1.9,1.1c-1.2,0.7-2.1,1.9-2.5,3.3
			c-0.4,1.4-0.2,2.8,0.5,4.1l1.1,1.9c1.5,2.6,4.8,3.4,7.3,2l2.1-1.2l0,0c0.1-0.1,0.2-0.2,0.4-0.3
			C192.7,176.1,193.5,175.8,194.3,175.8z"/>
		<path d="M206.6,119.4c-1,0-2-0.3-2.7-1c-1.7-1.5-1.9-4.1-0.3-5.8c0.6-0.7,15.2-16.9,38.4-21.2c2.2-0.4,4.4,1.1,4.8,3.3
			c0.4,2.2-1.1,4.4-3.3,4.8c-10.6,2-19.1,6.9-24.5,10.6c-5.9,4.1-9.2,7.9-9.3,7.9C208.8,118.9,207.7,119.4,206.6,119.4z"/>
	</g>
	<g>
		<circle class="st1" cx="244.2" cy="141" r="106.3"/>
	</g>
</g>
<g id="图层_2">
	<line class="st2" x1="242.6" y1="19" x2="242.6" y2="51.7"/>
	<line class="st2" x1="182.5" y1="36.2" x2="198.9" y2="64.5"/>
	<line class="st2" x1="139" y1="81.1" x2="167.4" y2="97.5"/>
	<line class="st2" x1="123.9" y1="141.8" x2="156.6" y2="141.8"/>
	<line class="st2" x1="141.1" y1="202" x2="169.5" y2="185.6"/>
	<line class="st2" x1="186.1" y1="245.4" x2="202.4" y2="217.1"/>
	<line class="st2" x1="246.7" y1="260.6" x2="246.7" y2="227.8"/>
	<line class="st2" x1="306.9" y1="243.4" x2="290.5" y2="215"/>
	<line class="st2" x1="350.4" y1="198.4" x2="322" y2="182"/>
	<line class="st2" x1="365.5" y1="137.7" x2="332.8" y2="137.7"/>
	<line class="st2" x1="348.3" y1="77.6" x2="319.9" y2="94"/>
	<line class="st2" x1="303.3" y1="34.1" x2="287" y2="62.5"/>
</g>
</svg>
