<?xml version="1.0" standalone="no"?><!DOCTYPE svg PUBLIC "-//W3C//DTD SVG 1.1//EN" "http://www.w3.org/Graphics/SVG/1.1/DTD/svg11.dtd"><svg class="icon" width="40px" height="40.00px" viewBox="0 0 1024 1024" version="1.1" xmlns="http://www.w3.org/2000/svg"><path d="M512 1024C229.888 1024 0 794.112 0 512S229.888 0 512 0s512 229.888 512 512-229.888 512-512 512z m0-960c-246.784 0-448 201.216-448 448s201.216 448 448 448 448-201.216 448-448-201.216-448-448-448z" fill="#f4ea2a" /><path d="M272.384 512m-79.872 0a79.872 79.872 0 1 0 159.744 0 79.872 79.872 0 1 0-159.744 0Z" fill="#f4ea2a" /><path d="M512 512m-79.872 0a79.872 79.872 0 1 0 159.744 0 79.872 79.872 0 1 0-159.744 0Z" fill="#f4ea2a" /><path d="M751.616 512m-79.872 0a79.872 79.872 0 1 0 159.744 0 79.872 79.872 0 1 0-159.744 0Z" fill="#f4ea2a" /></svg>